<svg width="16" height="16" viewBox="0 0 16 16" fill="none" xmlns="http://www.w3.org/2000/svg">
<rect width="16" height="16" rx="3" fill="#238636"/>
<path fill-rule="evenodd" clip-rule="evenodd" d="M8 2C4.686 2 2 4.686 2 8C2 10.616 3.717 12.825 6.098 13.531C6.398 13.586 6.51 13.404 6.51 13.247C6.51 13.107 6.503 12.592 6.503 12.043C5 12.338 4.64 11.713 4.52 11.383C4.453 11.214 4.16 10.631 3.9 10.491C3.694 10.379 3.394 10.084 3.893 10.077C4.365 10.07 4.703 10.512 4.81 10.694C5.346 11.613 6.199 11.359 6.532 11.203C6.587 10.789 6.752 10.506 6.937 10.345C5.57 10.184 4.142 9.62 4.142 7.445C4.142 6.778 4.38 6.224 4.82 5.795C4.758 5.634 4.548 5.003 4.88 4.152C4.88 4.152 5.374 3.984 6.51 4.775C6.987 4.634 7.497 4.563 8.007 4.563C8.517 4.563 9.027 4.634 9.504 4.775C10.64 3.977 11.134 4.152 11.134 4.152C11.466 5.003 11.256 5.634 11.194 5.795C11.634 6.224 11.872 6.771 11.872 7.445C11.872 9.627 10.437 10.184 9.07 10.345C9.295 10.541 9.493 10.912 9.493 11.494C9.493 12.323 9.486 12.987 9.486 13.247C9.486 13.404 9.599 13.593 9.899 13.531C12.277 12.825 14 10.609 14 8C14 4.686 11.314 2 8 2Z" fill="white"/>
</svg>
