<svg width="48" height="48" viewBox="0 0 48 48" fill="none" xmlns="http://www.w3.org/2000/svg">
<rect width="48" height="48" rx="8" fill="#238636"/>
<path fill-rule="evenodd" clip-rule="evenodd" d="M24 8C15.716 8 9 14.716 9 23C9 29.616 13.294 35.283 19.278 37.295C20.028 37.43 20.295 36.971 20.295 36.573C20.295 36.214 20.281 35.039 20.281 33.792C16 34.632 15.1 32.852 14.8 31.912C14.635 31.435 13.9 30.115 13.25 29.757C12.71 29.47 11.96 28.63 13.235 28.615C14.44 28.601 15.295 29.716 15.56 30.175C16.94 32.543 19.134 31.831 20.36 31.432C20.495 30.43 20.88 29.732 21.31 29.314C17.83 28.896 14.2 27.526 14.2 21.356C14.2 19.357 14.92 17.704 15.605 16.527C15.455 16.109 14.92 14.226 15.755 11.725C15.755 11.725 17.045 11.292 20.295 13.572C21.535 13.211 22.855 13.031 24.175 13.031C25.495 13.031 26.815 13.211 28.055 13.572C31.305 11.278 32.595 11.725 32.595 11.725C33.43 14.226 32.895 16.109 32.745 16.527C33.43 17.704 34.15 19.343 34.15 21.356C34.15 27.541 30.505 28.896 27.025 29.314C27.575 29.803 28.055 30.738 28.055 32.186C28.055 34.244 28.04 35.896 28.04 36.573C28.04 36.971 28.307 37.444 29.057 37.295C35.03 35.269 39 29.601 39 23C39 14.716 32.284 8 24 8Z" fill="white"/>
</svg>
