<svg width="128" height="128" viewBox="0 0 128 128" fill="none" xmlns="http://www.w3.org/2000/svg">
<rect width="128" height="128" rx="24" fill="#238636"/>
<path fill-rule="evenodd" clip-rule="evenodd" d="M64 20C42.462 20 25 37.462 25 59C25 76.044 36.317 90.472 51.75 95.538C53.75 95.898 54.5 94.673 54.5 93.607C54.5 92.648 54.462 89.512 54.462 86.188C41 88.433 38.5 82.677 37.7 79.674C37.262 78.158 35.3 74.635 33.625 73.677C32.25 72.921 30.25 70.677 33.587 70.639C36.75 70.602 38.987 73.565 39.75 74.791C43.25 80.668 48.75 78.423 54.625 77.365C55 75.468 55.75 74.1 56.625 73.304C46.75 72.207 36.45 68.086 36.45 52.862C36.45 48.526 38.075 44.957 39.875 42.106C39.475 41.31 38.075 37.193 40.275 31.654C40.275 31.654 43.575 30.82 54.5 35.886C57.625 34.928 60.937 34.449 64.25 34.449C67.562 34.449 70.875 34.928 74 35.886C84.925 30.782 88.225 31.654 88.225 31.654C90.425 37.193 89.025 41.31 88.625 42.106C90.425 44.957 92.05 48.488 92.05 52.862C92.05 68.123 81.712 72.207 71.837 73.304C72.975 74.328 73.95 76.301 73.95 79.413C73.95 83.901 73.912 87.496 73.912 93.607C73.912 94.673 74.662 95.936 76.662 95.538C92.048 90.434 103 76.006 103 59C103 37.462 85.538 20 64 20Z" fill="white"/>
</svg>
