<?xml version="1.0" standalone="no"?>
<!DOCTYPE svg PUBLIC "-//W3C//DTD SVG 20010904//EN"
 "http://www.w3.org/TR/2001/REC-SVG-20010904/DTD/svg10.dtd">
<svg version="1.0" xmlns="http://www.w3.org/2000/svg"
 width="1080.000000pt" height="1080.000000pt" viewBox="0 0 1080.000000 1080.000000"
 preserveAspectRatio="xMidYMid meet">

<g transform="translate(0.000000,1080.000000) scale(0.100000,-0.100000)"
fill="#000000" stroke="none">
<path d="M5185 7549 c-351 -37 -680 -154 -970 -346 -370 -245 -635 -563 -810
-973 -186 -436 -214 -956 -78 -1435 124 -435 404 -841 770 -1116 216 -163 551
-329 664 -329 31 0 47 7 70 29 l29 29 0 222 0 221 -72 -8 c-115 -13 -286 -8
-355 10 -146 38 -221 103 -300 262 -90 179 -147 250 -259 327 -22 14 -46 38
-54 52 -12 24 -12 29 3 44 29 29 150 23 219 -11 70 -34 153 -115 213 -206 135
-205 312 -263 563 -185 42 14 53 22 58 43 20 102 59 188 106 237 l29 31 -63 7
c-212 24 -415 96 -564 201 -146 104 -252 265 -308 465 -44 156 -59 421 -32
562 26 132 96 285 173 377 l29 34 -18 71 c-12 47 -19 107 -19 177 0 112 8 164
42 267 l21 62 47 0 c108 0 283 -65 466 -174 l80 -48 95 21 c162 36 248 45 445
45 197 0 283 -9 445 -45 l96 -21 64 42 c161 104 359 180 471 180 56 0 57 0 72
-37 8 -21 22 -73 32 -116 22 -97 17 -308 -8 -375 l-16 -42 50 -66 c61 -81 98
-153 135 -264 27 -82 28 -92 28 -285 0 -182 -2 -210 -26 -312 -67 -280 -213
-476 -443 -591 -124 -61 -293 -110 -447 -128 l-58 -7 30 -34 c42 -47 68 -103
91 -190 17 -68 19 -113 19 -435 0 -301 2 -364 15 -388 34 -65 96 -67 245 -5
334 136 624 345 841 603 407 486 582 1092 493 1712 -115 803 -679 1479 -1447
1735 -291 97 -614 134 -902 104z"/>
<path d="M5208 6210 c-67 -20 -101 -65 -108 -140 l-5 -55 -66 -7 c-108 -10
-177 -57 -218 -148 -19 -40 -21 -65 -21 -248 l0 -202 -54 -24 c-59 -26 -76
-48 -76 -97 0 -42 77 -201 122 -253 l33 -38 50 18 c37 13 78 18 155 18 115 -1
170 -15 253 -65 l47 -29 0 340 0 340 -47 -19 c-27 -10 -95 -38 -153 -61 -58
-23 -111 -44 -117 -47 -10 -4 -13 28 -13 140 0 139 1 147 22 161 19 14 74 16
394 16 349 0 372 -1 388 -19 14 -16 16 -38 14 -159 l-3 -140 -160 64 c-88 35
-161 64 -162 64 -2 0 -3 -152 -3 -339 l0 -338 73 37 c111 59 238 75 347 45 30
-8 64 -17 75 -20 15 -4 29 6 59 47 50 69 108 192 109 235 1 44 -29 83 -80 101
l-41 15 -4 206 c-3 192 -5 209 -26 253 -46 92 -134 148 -236 148 l-46 0 0 38
c0 61 -38 123 -90 150 -41 20 -57 22 -215 21 -93 0 -182 -4 -197 -9z"/>
<path d="M4912 4864 c-24 -8 -77 -37 -118 -64 -45 -29 -96 -53 -129 -61 -51
-11 -57 -10 -108 15 -70 34 -109 34 -136 0 -12 -15 -21 -35 -21 -45 0 -51 105
-116 205 -126 76 -8 175 25 271 90 74 50 80 52 145 52 63 0 70 -2 136 -48 182
-125 295 -128 473 -12 47 31 95 58 108 62 52 13 112 -4 183 -51 104 -69 160
-89 254 -90 70 -1 87 3 138 29 65 32 87 57 87 95 0 33 -38 70 -73 70 -14 0
-46 -10 -69 -22 -79 -42 -140 -28 -280 62 -78 51 -125 63 -218 58 -80 -5 -119
-20 -220 -87 -125 -83 -169 -81 -303 16 -26 19 -70 44 -97 54 -61 23 -167 24
-228 3z"/>
</g>
</svg>
